<?xml version="1.0" encoding="UTF-8" standalone="no"?>
<svg
   xmlns:dc="http://purl.org/dc/elements/1.1/"
   xmlns:cc="http://creativecommons.org/ns#"
   xmlns:rdf="http://www.w3.org/1999/02/22-rdf-syntax-ns#"
   xmlns:svg="http://www.w3.org/2000/svg"
   xmlns="http://www.w3.org/2000/svg"
   xmlns:sodipodi="http://sodipodi.sourceforge.net/DTD/sodipodi-0.dtd"
   xmlns:inkscape="http://www.inkscape.org/namespaces/inkscape"
   width="30mm"
   height="50mm"
   viewBox="0 0 30 50"
   version="1.1"
   id="svg8"
   inkscape:version="1.0.2 (e86c870879, 2021-01-15, custom)"
   sodipodi:docname="eraser.svg">
  <defs
     id="defs2" />
  <sodipodi:namedview
     id="base"
     pagecolor="#ffffff"
     bordercolor="#666666"
     borderopacity="1.0"
     inkscape:pageopacity="0.0"
     inkscape:pageshadow="2"
     inkscape:zoom="0.7"
     inkscape:cx="97.411908"
     inkscape:cy="35.310359"
     inkscape:document-units="mm"
     inkscape:current-layer="layer1"
     inkscape:document-rotation="0"
     showgrid="false"
     inkscape:window-width="1366"
     inkscape:window-height="705"
     inkscape:window-x="-8"
     inkscape:window-y="-8"
     inkscape:window-maximized="1"
     showguides="true">
    <inkscape:grid
       type="xygrid"
       id="grid833"
       dotted="true"
       units="mm"
       spacingx="1"
       spacingy="1" />
  </sodipodi:namedview>
  <metadata
     id="metadata5">
    <rdf:RDF>
      <cc:Work
         rdf:about="">
        <dc:format>image/svg+xml</dc:format>
        <dc:type
           rdf:resource="http://purl.org/dc/dcmitype/StillImage" />
        <dc:title></dc:title>
      </cc:Work>
    </rdf:RDF>
  </metadata>
  <g
     inkscape:label="Layer 1"
     inkscape:groupmode="layer"
     id="layer1">
    <path
       style="fill:#595959;stroke:none;stroke-width:0.264583px;stroke-linecap:butt;stroke-linejoin:miter;stroke-opacity:1;fill-opacity:1"
       d="M 3.9999999,20 H 26 v 6.999999 H 3.9999999 Z"
       id="path855" />
    <path
       style="fill:#e5916a;fill-opacity:1;stroke:none;stroke-width:0.264583px;stroke-linecap:butt;stroke-linejoin:miter;stroke-opacity:1"
       d="M 5,20 V 10 C 5,10 5,5.0021496 10.000309,5.001433 L 20,5 c 0,0 5,0 5,5.000186 V 20 Z"
       id="path843"
       sodipodi:nodetypes="ccscscc" />
    <path
       style="fill:#ffbe29;stroke:none;stroke-width:0.264583px;stroke-linecap:butt;stroke-linejoin:miter;stroke-opacity:1;fill-opacity:1"
       d="M 5,34.999998 H 15 V 50 H 5 Z"
       id="path847" />
    <path
       style="fill:#ffde92;stroke:none;stroke-width:0.264583px;stroke-linecap:butt;stroke-linejoin:miter;stroke-opacity:1;fill-opacity:1"
       d="M 15,34.999998 H 25 V 50 H 15 Z"
       id="path849" />
    <path
       style="fill:#272727;stroke:none;stroke-width:0.264583px;stroke-linecap:butt;stroke-linejoin:miter;stroke-opacity:1;fill-opacity:1"
       d="M 3.9999999,26.999999 H 26 v 1 H 3.9999999 Z"
       id="path851" />
    <path
       style="fill:#272727;fill-opacity:1;stroke:none;stroke-width:0.264583px;stroke-linecap:butt;stroke-linejoin:miter;stroke-opacity:1"
       d="M 7,24 C 7,24 7,23 8.0000001,23 9,23 9,24 9,24 9,24 9,25 8.0000001,25 7,25 7,24 7,24 Z"
       id="path853" />
    <path
       style="fill:#595959;stroke:none;stroke-width:0.264583px;stroke-linecap:butt;stroke-linejoin:miter;stroke-opacity:1;fill-opacity:1"
       d="M 3.9999999,27.999999 H 26 v 6.999999 H 3.9999999 Z"
       id="path857" />
    <path
       style="fill:#272727;fill-opacity:1;stroke:none;stroke-width:0.264583px;stroke-linecap:butt;stroke-linejoin:miter;stroke-opacity:1"
       d="m 21,24 c 0,0 0,-1 1,-1 1,0 1,1 1,1 0,0 0,1 -1,1 -1,0 -1,-1 -1,-1 z"
       id="path859" />
    <path
       style="fill:#272727;fill-opacity:1;stroke:none;stroke-width:0.264583px;stroke-linecap:butt;stroke-linejoin:miter;stroke-opacity:1"
       d="m 21,32 c 0,0 0,-1 1,-1 1,0 1,1 1,1 0,0 0,1 -1,1 -1,0 -1,-1 -1,-1 z"
       id="path861" />
    <path
       style="fill:#272727;fill-opacity:1;stroke:none;stroke-width:0.264583px;stroke-linecap:butt;stroke-linejoin:miter;stroke-opacity:1"
       d="m 7,32 c 0,0 0,-1 1,-1 1,0 1,1 1,1 0,0 0,1 -1,1 -1,0 -1,-1 -1,-1 z"
       id="path863" />
  </g>
</svg>
